<svg width="24" height="24" viewBox="0 0 24 24" fill="none" xmlns="http://www.w3.org/2000/svg">
    <path fill-rule="evenodd" clip-rule="evenodd"
          d="M23 16.58C22.75 14.47 20.6 13.4 17.21 13.09C18.2113 13.8954 18.8545 15.0633 19 16.34V16.46C19 16.78 19 17.15 19 17.53V18.33L18.45 18.91C18.1715 19.2083 17.8778 19.492 17.57 19.76H17.51C17.39 19.87 17.27 19.98 17.14 20.08C17.01 20.18 16.82 20.33 16.61 20.47L16.53 20.53C16.4099 20.6289 16.2829 20.7192 16.15 20.8L16 21H16.11L16.48 20.95C16.72 20.95 16.95 20.89 17.19 20.84L17.6 20.74L18.22 20.58C18.37 20.58 18.51 20.48 18.65 20.43L19.22 20.22L19.64 20.03C19.82 19.95 19.99 19.87 20.17 19.77L20.58 19.54L21.06 19.24L21.45 18.96C21.6 18.85 21.75 18.75 21.9 18.63L22.26 18.31C22.5221 18.0864 22.7724 17.8495 23.01 17.6C23 17.2 23 16.87 23 16.58Z"
          fill="#000"/>
    <path fill-rule="evenodd" clip-rule="evenodd"
          d="M14.9999 8.2C15.0067 9.38476 14.7613 10.5574 14.2799 11.64C15.1011 11.8583 15.886 12.1952 16.6099 12.64C17.9999 12.09 18.9999 10.63 18.9999 8.2C19.027 7.65813 18.9437 7.11641 18.7548 6.60778C18.566 6.09915 18.2756 5.63426 17.9015 5.24138C17.5273 4.8485 17.0771 4.53584 16.5783 4.32244C16.0795 4.10903 15.5425 3.99932 14.9999 4C14.5479 4.00394 14.0992 4.07816 13.6699 4.22C14.5508 5.358 15.0196 6.76107 14.9999 8.2Z"
          fill="#000"/>
    <path fill-rule="evenodd" clip-rule="evenodd"
          d="M13.0001 8.19999C13.0272 7.65812 12.9439 7.11639 12.755 6.60777C12.5662 6.09914 12.2758 5.63425 11.9017 5.24137C11.5275 4.84849 11.0773 4.53583 10.5785 4.32242C10.0797 4.10901 9.54266 3.99931 9.00011 3.99999C8.46917 3.97887 7.9396 4.06788 7.44474 4.26143C6.94988 4.45497 6.50044 4.74886 6.12471 5.12459C5.74898 5.50032 5.45509 5.94976 5.26155 6.44462C5.068 6.93948 4.97899 7.46905 5.00011 7.99999C5.00011 11.43 6.76011 13 9.00011 13C11.2401 13 13.0001 11.48 13.0001 8.19999ZM9.00011 11C7.82011 11 7.00011 10.27 7.00011 7.99999C6.97905 7.73199 7.01634 7.4626 7.1094 7.21039C7.20246 6.95819 7.34909 6.72915 7.53918 6.53906C7.72927 6.34896 7.95831 6.20234 8.21052 6.10928C8.46273 6.01622 8.73211 5.97893 9.00011 5.99999C9.28047 5.99859 9.55799 6.05614 9.81466 6.16892C10.0713 6.28169 10.3014 6.44717 10.49 6.65462C10.6786 6.86207 10.8215 7.10685 10.9094 7.37308C10.9972 7.63931 11.0282 7.92104 11.0001 8.19999C11.0001 10.3 10.1801 11 9.00011 11Z"
          fill="#000"/>
    <path fill-rule="evenodd" clip-rule="evenodd"
          d="M17 17.54C17 17.2 17 16.87 17 16.54C16.68 14 13.64 13 9 13C4.36 13 1.32 14 1 16.58C1 16.81 1 17.22 1 17.58C1.24 17.8333 1.49 18.0733 1.75 18.3L2.11 18.61L2.56 18.95L2.95 19.22C3.11 19.33 3.27 19.42 3.44 19.52L3.84 19.75C4.02 19.85 4.19 19.93 4.37 20.01L4.79 20.2L5.36 20.41C5.5 20.46 5.64 20.52 5.79 20.56L6.41 20.72L6.82 20.82C7.06 20.82 7.3 20.9 7.54 20.93L7.9 20.98C8.26602 21.0068 8.63324 21.0135 9 21V21C9.36749 21.0002 9.73471 20.9802 10.1 20.94L10.47 20.89C10.71 20.89 10.94 20.83 11.18 20.78L11.59 20.68L12.21 20.52C12.36 20.52 12.5 20.42 12.64 20.37L13.21 20.16L13.63 19.97C13.81 19.89 13.98 19.81 14.16 19.71L14.57 19.48L15.05 19.18L15.44 18.9C15.59 18.79 15.74 18.69 15.89 18.57L16.25 18.25C16.5121 18.0264 16.7624 17.7894 17 17.54ZM9 19C6.78902 19.0163 4.65078 18.2109 3 16.74C3.33 15.69 5.43 15 9 15C12.57 15 14.67 15.69 15 16.74C13.3492 18.2109 11.211 19.0163 9 19V19Z"
          fill="#000"/>
</svg>
