<svg width="40" height="40" viewBox="0 0 40 40" fill="none" xmlns="http://www.w3.org/2000/svg">
    <path d="M3.5 14V9.99999C3.5 8.27599 4.184 6.622 5.404 5.404C6.622 4.184 8.27599 3.5 9.99999 3.5H14C14.828 3.5 15.5 2.828 15.5 2C15.5 1.172 14.828 0.5 14 0.5H9.99999C7.48 0.5 5.064 1.5 3.282 3.282C1.5 5.064 0.5 7.48 0.5 9.99999V14C0.5 14.828 1.172 15.5 2 15.5C2.828 15.5 3.5 14.828 3.5 14Z"
          fill="white"/>
    <path d="M26 3.5H30C31.724 3.5 33.378 4.184 34.596 5.404C35.816 6.622 36.5 8.27599 36.5 9.99999V14C36.5 14.828 37.172 15.5 38 15.5C38.828 15.5 39.5 14.828 39.5 14V9.99999C39.5 7.48 38.5 5.064 36.718 3.282C34.936 1.5 32.52 0.5 30 0.5C27.796 0.5 26 0.5 26 0.5C25.172 0.5 24.5 1.172 24.5 2C24.5 2.828 25.172 3.5 26 3.5Z"
          fill="white"/>
    <path d="M0.5 26V30C0.5 32.52 1.5 34.936 3.282 36.718C5.064 38.5 7.48 39.5 9.99999 39.5H14C14.828 39.5 15.5 38.828 15.5 38C15.5 37.172 14.828 36.5 14 36.5H9.99999C8.27599 36.5 6.622 35.816 5.404 34.596C4.184 33.378 3.5 31.724 3.5 30C3.5 27.796 3.5 26 3.5 26C3.5 25.172 2.828 24.5 2 24.5C1.172 24.5 0.5 25.172 0.5 26Z"
          fill="white"/>
    <path d="M26 39.5H30C32.52 39.5 34.936 38.5 36.718 36.718C38.5 34.936 39.5 32.52 39.5 30C39.5 27.796 39.5 26 39.5 26C39.5 25.172 38.828 24.5 38 24.5C37.172 24.5 36.5 25.172 36.5 26V30C36.5 31.724 35.816 33.378 34.596 34.596C33.378 35.816 31.724 36.5 30 36.5C27.796 36.5 26 36.5 26 36.5C25.172 36.5 24.5 37.172 24.5 38C24.5 38.828 25.172 39.5 26 39.5Z"
          fill="white"/>
    <path d="M25.5 13V15C25.5 15.828 26.172 16.5 27 16.5C27.828 16.5 28.5 15.828 28.5 15V13C28.5 12.172 27.828 11.5 27 11.5C26.172 11.5 25.5 12.172 25.5 13Z"
          fill="white"/>
    <path d="M11.5 13V15C11.5 15.828 12.172 16.5 13 16.5C13.828 16.5 14.5 15.828 14.5 15V13C14.5 12.172 13.828 11.5 13 11.5C12.172 11.5 11.5 12.172 11.5 13Z"
          fill="white"/>
    <path d="M19.4999 21.072V16C19.4999 15.172 20.1719 14.5 20.9999 14.5C21.8279 14.5 22.4999 15.172 22.4999 16V22C22.4999 22.568 22.1779 23.088 21.6699 23.342L19.6699 24.342C18.9299 24.712 18.0279 24.412 17.6579 23.67C17.2879 22.93 17.5879 22.028 18.3299 21.658L19.4999 21.072Z"
          fill="white"/>
    <path d="M25.94 25.94C26.212 25.668 26.586 25.5 27 25.5C27.828 25.5 28.5 26.172 28.5 27C28.5 27.414 28.332 27.788 28.06 28.06C27.788 28.332 28.06 28.062 28.058 28.064C23.608 32.514 16.392 32.514 11.942 28.064C11.94 28.062 11.94 28.06 11.94 28.06C11.668 27.788 11.5 27.414 11.5 27C11.5 26.172 12.172 25.5 13 25.5C13.414 25.5 13.788 25.668 14.06 25.94C14.332 26.212 14.062 25.94 14.064 25.942C17.342 29.22 22.658 29.22 25.936 25.942C25.938 25.94 25.94 25.94 25.94 25.94Z"
          fill="white"/>
</svg>
