<svg xmlns="http://www.w3.org/2000/svg" width="22.503" height="24" viewBox="0 0 22.503 24">
  <path id="Path_71099" data-name="Path 71099" d="M183.095,153.445a.749.749,0,0,0-1.059,1.059l1.109,1.109a2.749,2.749,0,0,0-.252,1.109,2.813,2.813,0,0,0,2.017,2.672v9.731a1.008,1.008,0,1,1-2.017,0v-.706a2.926,2.926,0,0,0-2.924-2.924V153.847a3.271,3.271,0,0,0-3.277-3.277h-7.815a3.271,3.271,0,0,0-3.277,3.277v18.958a1.754,1.754,0,0,0-1.765,1.765h18.05a1.754,1.754,0,0,0-1.765-1.765h-.252v-5.748a1.409,1.409,0,0,1,1.412,1.412v.656a2.521,2.521,0,1,0,5.042,0v-12.05c.1-.555-.2-.5-3.227-3.63Zm-14.974.4a.756.756,0,0,1,.807-.756h7.714a.775.775,0,0,1,.756.756v5.95H168.12Z" transform="translate(-163.834 -150.57)" />
</svg>
