<svg xmlns="http://www.w3.org/2000/svg" width="196" height="196.037" viewBox="0 0 196 196.037">
  <g id="kayclogo" transform="translate(-42.5 1096.697)">
    <path id="Path_73330" data-name="Path 73330" d="M135.526-1096.643a98.892,98.892,0,0,0-19.342,2.966,97.97,97.97,0,0,0-29.75,13.189,98.507,98.507,0,0,0-27.779,27.779,99.8,99.8,0,0,0-11.366,23.468,100.493,100.493,0,0,0-4.458,21.276,130.662,130.662,0,0,0,0,18.605,100.4,100.4,0,0,0,6.484,26.895,124.376,124.376,0,0,0,6.263,12.913,98.3,98.3,0,0,0,71.382,48.042,80.686,80.686,0,0,0,13.539.847,80.686,80.686,0,0,0,13.539-.847,98.314,98.314,0,0,0,71.382-48.042,126.206,126.206,0,0,0,6.263-12.913,99.774,99.774,0,0,0,5.968-22.658,80.688,80.688,0,0,0,.847-13.54,80.686,80.686,0,0,0-.847-13.539,99.773,99.773,0,0,0-5.968-22.658,126.2,126.2,0,0,0-6.263-12.913,98.552,98.552,0,0,0-54.305-44.082,100.789,100.789,0,0,0-21.129-4.458C147.5-1096.569,137.626-1096.809,135.526-1096.643Zm8.289,9.727c.718.313,2.1,2.081,4.292,5.563l1.4,2.229,1.437-1.234a40.251,40.251,0,0,1,5.784-4.347,2.97,2.97,0,0,1,3.021.7c.995.976.7,1.51-1.713,3.132a63.107,63.107,0,0,0-6.742,5.084,25.106,25.106,0,0,0-.645,3.076,12.92,12.92,0,0,1-.829,3.224,2.039,2.039,0,0,1-3.187.184c-.626-.645-.645-1.068-.2-4.661l.295-2.524-1.271-1.879c-.7-1.05-2.045-2.874-3-4.089-1.953-2.487-2.284-3.113-2.008-3.721C140.85-1087.064,142.545-1087.432,143.816-1086.916Zm-12.932.313c1.068.295,1.842,1.105,3.408,3.629,2.763,4.421,5.839,10.353,6.042,11.661a1.9,1.9,0,0,1-2.763,1.769c-.442-.2-.811-.682-1.474-1.953-.5-.921-.995-1.787-1.105-1.934-.166-.221-.589-.221-2.782,0-3.316.332-5.434.7-5.618.995a6.875,6.875,0,0,0-.35,1.308c-.442,2.156-.737,2.911-1.308,3.205-1.308.682-2.947-.037-2.947-1.289,0-2.1,2.818-12.8,4.089-15.529a3.329,3.329,0,0,1,2.339-1.805A3.8,3.8,0,0,1,130.884-1086.6Zm-17.371,4.126a1.148,1.148,0,0,1,.571,1.566,28.394,28.394,0,0,1-1.934,2.947c-.958,1.363-1.916,2.781-2.118,3.15l-.368.663,2.892,1.418c6.632,3.279,8.142,4.55,6.963,5.95-1.105,1.308-2.45,1.289-4.642-.092-1.382-.866-5.821-3.168-6.834-3.555-.424-.166-.479-.074-1.418,1.861l-.995,2.045,1.087,1.971a12.452,12.452,0,0,1,1.087,2.339,2.737,2.737,0,0,1-1.271,1.842,2.186,2.186,0,0,1-2.192-.055c-.442-.368-8.087-12.01-8.345-12.729-.239-.608-.092-1.142.516-1.879.976-1.142,2.726-1.6,3.592-.9a14.453,14.453,0,0,1,1.713,2.616c.7,1.253,1.382,2.45,1.529,2.69.258.387.332.276,1.953-2.947,1.9-3.795,3.887-7.129,4.789-8.032A3.072,3.072,0,0,1,113.513-1082.477Zm56.239,2.008a15.841,15.841,0,0,1,5.729,2.395,11.428,11.428,0,0,1,4.126,4.513c1.216,2.469.829,4.624-.829,4.624-1.474,0-2.339-.9-2.745-2.855a5.513,5.513,0,0,0-1.824-3.574c-1.971-1.824-5.029-2.542-7.055-1.676-2.689,1.161-4.421,5.268-3.426,8.142a6.572,6.572,0,0,0,4.661,3.758,4.734,4.734,0,0,0,3.482-.276c.368-.184,1.032-.534,1.474-.755a1.705,1.705,0,0,1,2.376.46c1.179,1.179.682,2.413-1.382,3.371a10.362,10.362,0,0,1-5.766.331,21.461,21.461,0,0,1-5.913-2.966,9.489,9.489,0,0,1-2.45-11.532C161.887-1079.806,165.442-1081.28,169.753-1080.469Zm-14.35,41.1a15.332,15.332,0,0,1,2.745,1.271,9.8,9.8,0,0,0,3.813,1.658c4.384,1.032,4.845,1.253,6.908,3.316a23.5,23.5,0,0,0,2.339,2.155,38.528,38.528,0,0,1,3.187,2.929c2.247,2.192,2.524,2.542,2.782,3.445.276.94.276,1.087-.092,2.6a35.281,35.281,0,0,0-.571,4.918,26.786,26.786,0,0,1-.461,3.905,14.2,14.2,0,0,0-.461,2.266,7.922,7.922,0,0,1-.516,2.247c-.792,1.363-.958,1.732-.958,2.118a9.141,9.141,0,0,1-2.008,2.892,1.019,1.019,0,0,1-1.032.221c-.774-.147-.792-.276-.166-.866a2.875,2.875,0,0,0,.995-2.137,5.587,5.587,0,0,1,.645-1.768c.5-.737.5-1.216,0-.571a6.229,6.229,0,0,0-1.105,2.376,3.347,3.347,0,0,1-.5,1.234c-.35.516-1.382,1.179-1.547,1.013a38.677,38.677,0,0,1,.921-6.539,5.34,5.34,0,0,1,2.321-1.989,7.977,7.977,0,0,0,2.874-2.69c.35-.682.221-.866-.166-.258a7.682,7.682,0,0,1-3.187,2.505c-1.824.847-2.561,1.639-2.837,3.113-.276,1.345-.7,2.192-1.179,2.34a11.429,11.429,0,0,1-1.953.147,3.835,3.835,0,0,0-3.408,1.4,15.117,15.117,0,0,1-3.389,2.505,3.539,3.539,0,0,1-3.205.074,6.469,6.469,0,0,0-1.676-.368c-2.561,0-3.279-1.087-2.763-4.237a11.744,11.744,0,0,0-.2-5.066c-.2-.663-.221-.461-.2,1.934,0,1.474-.055,3.334-.147,4.145a3.92,3.92,0,0,0,.129,2.155,2.456,2.456,0,0,0,2.284,1.437,9.435,9.435,0,0,1,2.211.461,9.331,9.331,0,0,0,2.063.461c1.032,0,2.855-1.05,4.532-2.6a18.2,18.2,0,0,1,1.971-1.658,5.918,5.918,0,0,1,2.082-.258,10.6,10.6,0,0,0,1.989-.166c.424-.2.405.424-.037,2.376-.553,2.432-1.179,3.371-2.45,3.666-.424.092-.516.055-.516-.2a1.341,1.341,0,0,1,.276-.682,1.458,1.458,0,0,0,.276-.534c0-.313-.608.313-1.6,1.676a9.321,9.321,0,0,1-1.676,1.768,20.876,20.876,0,0,1-4.55,2.118,11.886,11.886,0,0,0-2.3.995,30.194,30.194,0,0,1-6.208,2.524,8,8,0,0,0-2.155.884,5.1,5.1,0,0,1-1.953.755,7.15,7.15,0,0,0-3.224,1.308c-.479.534-.037.571,1.124.111a10.586,10.586,0,0,1,3.5-.792c.055.037-.258.442-.663.884a11.369,11.369,0,0,0-2.395,4.863,11.634,11.634,0,0,1-.9,2.376,4.788,4.788,0,0,1-1.289.792,12.089,12.089,0,0,0-1.805,1.013,25.694,25.694,0,0,1-2.395,1.289c-1.474.7-1.639.737-2.708.608-.608-.055-1.584-.147-2.137-.166a4.764,4.764,0,0,1-1.621-.387,2.16,2.16,0,0,0-1.474-.2,2.27,2.27,0,0,1-1.418-.184c-1.842-.976-5.508-1.345-6.411-.626-.608.479-.682.461-.682-.166,0-.792-.35-1.64-.737-1.768a4.085,4.085,0,0,0-2.284.571c-.479.332-.663.332-.663-.018,0-.516-.847-.847-2.266-.884-1.087-.037-1.455.037-1.732.276-.516.461-.774.405-.9-.184-.405-1.621-1.418-2.984-2.229-2.984a2.338,2.338,0,0,0-1.068.571,2.329,2.329,0,0,1-.7.516,5.571,5.571,0,0,1-.276-.534,2.819,2.819,0,0,0-1.861-1.29,1.52,1.52,0,0,0-.866.5c-.571.608-.774.424-.442-.461a18.818,18.818,0,0,1,2.432-3.74,27.033,27.033,0,0,1,3.371-2.634,22.733,22.733,0,0,0,5.213-5.582,15,15,0,0,1,1.289-1.529,12.854,12.854,0,0,0,1.105-1.271c.258-.46.295-1.6.037-1.768-.111-.074-.184.129-.184.479,0,.589-.626,1.824-.939,1.824-.239,0-.608-.811-1.2-2.579a9.049,9.049,0,0,1-.5-3.5,9.206,9.206,0,0,1,.755-4.053c1.068-3,1.179-3.924,1.105-8.382l-.055-3.868.682-1.437c1.345-2.837,2.45-3.7,4.661-3.7a7.851,7.851,0,0,1,2.284.332c.9.313,1.382.332,4.237.24a35.012,35.012,0,0,0,5.232-.5,7.455,7.455,0,0,1,3.132-.2c2.468.424,4.918.737,7,.921,2.634.221,3.389.534,4.661,1.9,1.676,1.787,2.192,3.279,2.026,6.042l-.092,1.75.276-.829a7.578,7.578,0,0,0,.221-2.487,5.8,5.8,0,0,0-.626-2.855c-1.289-2.69-2.911-3.776-6.005-4.071-2.155-.184-5.508-.534-6.853-.7-.5-.055-.939-.2-.958-.295-.037-.11.276-.387.682-.645.755-.461,1.621-1.308,5.545-5.416a24.459,24.459,0,0,1,3.039-2.8A10.707,10.707,0,0,1,155.4-1039.372Zm74.624,27.926a4.287,4.287,0,0,1,2.487,4.053,4.262,4.262,0,0,1-4.421,4.4,4.257,4.257,0,0,1-4.421-4.421,4.275,4.275,0,0,1,2.487-4.034A5.029,5.029,0,0,1,230.026-1011.445ZM54.658-1010.34a4.287,4.287,0,0,1,2.487,4.053,4.263,4.263,0,0,1-4.421,4.4,4.257,4.257,0,0,1-4.421-4.421,4.275,4.275,0,0,1,2.487-4.034A5.028,5.028,0,0,1,54.658-1010.34Zm111.005,10.721c.571.442.663.847.479,2.211-.221,1.695-.682,2.6-1.566,3.058-1.05.534-1.547,1.621-2.063,4.513a17.752,17.752,0,0,0-.074,4.329c.092,1.676.147,4.679.147,6.65-.018,3.389-.055,3.684-.534,5.158-1.326,4.089-4.053,7.976-6.65,9.505a9.663,9.663,0,0,1-3.905,1.105,23.755,23.755,0,0,0-6.263,2.082,13.969,13.969,0,0,1-2.763.939,62.231,62.231,0,0,1-6.945.534,21.366,21.366,0,0,0-5.434.792,28.658,28.658,0,0,1-8.842.166c-3.168-.663-4.237-1.142-6.355-2.855a5.66,5.66,0,0,0-1.234-.847,22.194,22.194,0,0,1-2.432-2.284,14.941,14.941,0,0,1-3.316-4.274,21.826,21.826,0,0,0-1.511-2.524,4.588,4.588,0,0,1-.811-2.008,2.236,2.236,0,0,1,.645-.608c.589-.461.663-.479,1.05-.2a1.816,1.816,0,0,0,.921.295c.276,0,.553.092.608.2a1.271,1.271,0,0,0,1.418.332c.332-.184.461-.129.921.368.405.442.645.553.939.461a4.253,4.253,0,0,0,1.971-2.045c.276-.571.479-.792.7-.755a.334.334,0,0,1,.258.35c-.571,2.3-.626,2.929-.313,3.85a2.883,2.883,0,0,0,2.468,2.008c2.026.424,3.924-.405,4.237-1.86a6.751,6.751,0,0,0,.074-1.787c-.037-.626.018-1.124.111-1.124a3.948,3.948,0,0,1,.682,1.326c.995,2.634,3.224,6.134,4.439,6.963l.645.442.332-.387c.276-.35.313-.737.221-3.445l-.092-3.058h.571a1.452,1.452,0,0,0,.847-.276c.35-.35.387-.35.995.092.663.5,2.929.645,3.408.221a.912.912,0,0,0,.313-.534c0-.35.166-.295.866.313.755.663.976.682,1.676.092a1.58,1.58,0,0,1,1.05-.405c.516.037.571-.018,1.142-1.124a1.65,1.65,0,0,1,.663.166c.718.258.534.332,2.413-1.087.718-.553,1.032-.9,1.032-1.2a1.339,1.339,0,0,1,.239-.718,16.19,16.19,0,0,1,2.984-2.137,13.813,13.813,0,0,1-1.179,3.426c-.571,1.124-.368,1.4.239.368a17.241,17.241,0,0,0,1.621-4.366,17.787,17.787,0,0,0,.442-4.532c.037-2.966.092-3.279.774-5.01a12.72,12.72,0,0,0,.608-2.211c.239-1.437.405-1.713.995-1.713a29.047,29.047,0,0,0,4.458-1.492c.553-.221.608-.2.976.258.958,1.2,2.947.9,5.489-.829,1.05-.718.829-.884-.332-.258-.7.368-.921.442-.921.24a.749.749,0,0,1,.24-.479,3.187,3.187,0,0,0,.589-.94c.258-.59.608-.884,1.6-1.474a11.481,11.481,0,0,1,1.437-.737,3.254,3.254,0,0,1,1.492.976,4.122,4.122,0,0,1,0,.682c-.037.442-.018.442.258.111a1.011,1.011,0,0,0-.221-1.529,1.717,1.717,0,0,0-.645-.424c-.276,0-.147-.424.258-.866A1.039,1.039,0,0,1,165.663-999.619Zm-6.724,3.721c-.055.166-.2.239-.295.184-.147-.092-.129-.2.018-.387C158.921-996.432,159.105-996.3,158.939-995.9Zm-1.124.092a2.764,2.764,0,0,1-.7,1.695c-.608.387-1.989-.111-1.676-.608a10.068,10.068,0,0,1,2.137-1.271A.355.355,0,0,1,157.816-995.806ZM57.439-991.551a2.7,2.7,0,0,1,.405,1.511c.092,1.51-.129,1.713-2.376,2.1a14.5,14.5,0,0,0-1.805.35c-.111.111,1.584,2.045,3.979,4.532,1.695,1.768,2.266,2.487,2.358,2.966.276,1.455-.2,2.266-1.05,1.824a19.561,19.561,0,0,1-2.082-2.063l-1.658-1.842L54.6-980.83c-.35.718-.995,2.229-1.455,3.334s-.921,2.155-1.032,2.339c-.755,1.216-1.971-.092-1.971-2.1,0-.9.166-1.363,1.474-3.979.811-1.64,1.474-3.076,1.474-3.168a18.948,18.948,0,0,0-1.842-2.616,2.581,2.581,0,0,0-1.234.055c-1.4.276-1.75.111-2.174-1.013a2.888,2.888,0,0,1,.147-2.634,16.782,16.782,0,0,1,3.942-.774C56.518-992.03,56.979-992.048,57.439-991.551Zm175.037-.092a3.775,3.775,0,0,1,.829,1.05c.35.682.405,1.032.405,3.076-.018,2.339-.258,3.85-1.308,8.2-.534,2.174-.9,3-1.455,3.15a23.906,23.906,0,0,1-4.255-1.068c-4.476-1.363-4.55-1.419-4.182-3.132.129-.534.553-2.505.976-4.384.958-4.366,1.161-4.955,2.045-5.968.626-.7.866-.847,1.382-.847.829,0,1.437.626,1.732,1.787l.2.866.35-.792C230.082-991.643,231.371-992.416,232.476-991.643Zm-84.7,1.216a4.454,4.454,0,0,1-.368,1.05c-.737,1.6-.921,2.8-.921,5.913,0,3.574-.018,3.611-1.75,4.882-.405.295-.976.737-1.253.995l-.516.479-.35-.461c-.534-.682-.479-1.087.147-1.05.461.037.5-.018.553-.792a6.732,6.732,0,0,0-.166-1.787c-.221-.94-.2-.976.258-1.455a6.42,6.42,0,0,0,1.068-2.358,27.51,27.51,0,0,1,1.2-3.169C146.487-989.837,147.795-991.219,147.776-990.427Zm-43.511,4.31c.074.553-.7,2.211-.9,1.9a3.693,3.693,0,0,1,.239-2.063C103.824-986.687,104.192-986.6,104.266-986.116Zm2.745-.11a3.686,3.686,0,0,1,1.345,2.063,18.937,18.937,0,0,1-2.026,3.924c-.295.276-.405.276-1.382,0a2.553,2.553,0,0,1-1.124-.534,5.652,5.652,0,0,1,.534-1.584,16.586,16.586,0,0,0,.866-2.34c.2-.9.774-1.9,1.068-1.9A3.171,3.171,0,0,1,107.011-986.227Zm4.108,1.087a4.916,4.916,0,0,1,.35,5.195c-.829,1.787-1.032,1.934-2.247,1.658a4.507,4.507,0,0,1-2.413-1.16c-.147-.258,0-.682.737-2.118a16.945,16.945,0,0,0,1.087-2.358C109-985.527,110.363-986.19,111.118-985.14Zm-6.539,1.013c-.295,1.105-.847,2.155-.976,1.787-.147-.46.939-3.168,1.179-2.929A4.451,4.451,0,0,1,104.579-984.127Zm11.7,1.216c.755,0,.755.608.018,2.063a7.052,7.052,0,0,1-2.524,3.261c-1.474,1.179-1.639,1.105-1.621-.774,0-1.511.608-3.574,1.2-4.108a4.1,4.1,0,0,1,2.339-.516A2.866,2.866,0,0,0,116.276-982.911Zm4.421,4.053c.092,1.879.184,4.421.184,5.674,0,2.229,0,2.284-.516,2.782-.424.442-.7.534-1.842.626-1.584.129-2.008,0-2.671-.792-.442-.5-.5-.737-.5-1.842,0-1.511.258-2.321,1.658-5.25.571-1.216,1.253-2.653,1.492-3.187a4.549,4.549,0,0,1,.976-1.455C120.366-983.04,120.476-982.727,120.7-978.858Zm-2.395-2.8a42.173,42.173,0,0,1-2.947,5.821c-.295.295-1.105-.074-1.308-.571-.166-.461-.111-.571.811-1.418a7.834,7.834,0,0,0,1.6-2.137c.571-1.179,1.161-1.824,1.621-1.842C118.192-981.806,118.3-981.732,118.3-981.659Zm24.445.774c.368,1.234.258,1.75-.35,1.768a1.324,1.324,0,0,0-.9.5c-.313.405-.442.46-.737.313-.276-.166-.35-.405-.35-1.253,0-1.161.184-1.511,1.013-1.953C142.232-981.935,142.489-981.806,142.747-980.885Zm-15.6.368c.9.332,1.474.9,1.474,1.474a11.408,11.408,0,0,1-.461,2.045,26.507,26.507,0,0,0-1.013,6.263c0,.608.092,1.9.2,2.855a8.456,8.456,0,0,1,.092,1.879c-.221.221-.737-.239-1.805-1.639a26.1,26.1,0,0,1-3.5-6.8,7.655,7.655,0,0,1-.571-3.647c.037-2.505.184-2.763,1.75-2.837A11.8,11.8,0,0,1,127.145-980.516Zm12.8,1.787c-.147,1.824-.313,2.174-.829,1.842-.276-.166-.424-.147-.7.11-.424.387-.663.387-1.032.018a2.58,2.58,0,0,1-.184-2.008,6.14,6.14,0,0,1,2.616-1.547C140.021-980.332,140.039-980.019,139.947-978.729ZM104.726-979.8c.35.129.461.35.553,1.013a10.833,10.833,0,0,0,.682,2.155,10.353,10.353,0,0,1,.553,1.547c0,.258-.682.829-.976.829-.2,0-.589-.976-1.068-2.69C103.6-980.13,103.6-980.222,104.726-979.8Zm26.268.368c.276.276.313.534.258,1.326a3.675,3.675,0,0,1-.35,1.363c-.147.2-.461.682-.718,1.05-.258.387-.571.7-.718.7s-.424-.332-.626-.755a1.381,1.381,0,0,1-.111-1.492,4.43,4.43,0,0,0,.258-1.179,2.714,2.714,0,0,1,.184-.884c.147-.387.295-.479.829-.479A1.508,1.508,0,0,1,130.995-979.43Zm-24.389.516a2.848,2.848,0,0,1,.534,1.087c.074.313.332,1.105.571,1.732.534,1.382.571,1.713.147,1.621-.405-.074-1.2-1.455-1.805-3.113C105.408-979.374,105.666-979.982,106.605-978.914Zm26.932.166a5.185,5.185,0,0,1-.884,2.726c-.774.995-1.621.332-1.179-.921a5.376,5.376,0,0,0,.276-1.308c0-.645.166-.755,1.068-.774C133.205-979.043,133.463-978.932,133.537-978.748Zm3.132,1.142c-.166,1.566-.258,1.732-.866,1.6a1.236,1.236,0,0,0-.9.129.584.584,0,0,1-.7.037c-.571-.368-.663-.7-.424-1.787l.2-1.05h2.8Zm-27.687-.147a.959.959,0,0,1,.589.682c.074.276.258,1.068.442,1.768.239.995.258,1.271.074,1.437-.405.332-.9-.11-1.455-1.253-.792-1.676-1.179-2.763-1.05-2.892S108.208-978.048,108.982-977.753Zm2.6-.2a2.747,2.747,0,0,1,.166.737c.111.958.811,1.455,1.345.921.332-.332.608-.018.608.682a2.928,2.928,0,0,1-1.087,2.192c-.461.424-.645.5-.9.35a8.141,8.141,0,0,1-1.621-3.426c-.111-.811-.092-.884.35-1.05a1.622,1.622,0,0,0,.589-.368A.309.309,0,0,1,111.579-977.956Zm30.634.387a3.69,3.69,0,0,1,.295,1.05c.129.682.092.774-.442,1.179-.313.24-.9.718-1.289,1.05-1.124.958-1.879.5-2.1-1.216l-.129-.995.553.129c.7.147,1.566-.424,1.289-.847-.332-.534-.166-.682.737-.663C141.734-977.864,142.084-977.772,142.213-977.569Zm-4.4,1.64c.405.295.424.442.35,1.566-.074,1.289-.368,1.75-.847,1.363-.184-.147-.368-.074-.774.313-.663.626-1.179.534-1.861-.368-.424-.553-.479-.755-.35-1.289.184-.774.866-1.4,1.382-1.253a2.737,2.737,0,0,0,.461.092c.424,0,.553-.092.553-.405C136.724-976.372,137.221-976.39,137.811-975.93Zm-5.858.9a.853.853,0,0,1,.589.074c.258.129.313.074.313-.313,0-.608.479-.792.847-.35.332.424.221,1.953-.2,2.966-.221.516-.35.626-.589.5a4.8,4.8,0,0,0-1.289-.147c-1.326-.018-1.676-.387-1.345-1.382a1.641,1.641,0,0,0,.111-.921c-.074-.111.018-.461.184-.774l.295-.589.405.516C131.511-975.156,131.805-974.972,131.953-975.027Zm-3.113.129a1.2,1.2,0,0,0,.792.46c.553,0,.461.442-.313,1.363-.387.46-.682.663-.958.626-.35-.055-.387-.166-.332-1.068.037-1.142.184-1.842.332-1.842A1.594,1.594,0,0,1,128.839-974.9Zm-69.539.221c2.874,1.345,5.858,7.461,5.545,11.384A4.8,4.8,0,0,1,61.584-959c-2.413.829-5.158-.976-6.889-4.568a12.224,12.224,0,0,1-1.566-6.521,5.6,5.6,0,0,1,.479-2.616,5.168,5.168,0,0,1,2.579-2.266A5.184,5.184,0,0,1,59.3-974.677Zm164.979.626c3.205,1.124,3.758,1.455,4.329,2.561,1.51,3.021-1.824,11.126-4.918,11.974-1.105.295-1.621.129-4.587-1.418-2.818-1.474-3.279-1.9-3.076-2.818.166-.719.939-1.658,1.382-1.658a24.062,24.062,0,0,1,3.3,1.4c3.408,1.6,3.666,1.621,4.716.405a6.592,6.592,0,0,0,1.455-3.868c.018-1.474-.332-1.768-3.647-3.095a26.8,26.8,0,0,1-2.984-1.308c-.571-.479-.147-2.468.608-2.911C221.35-975.064,221.332-975.064,224.279-974.051ZM67.774-957.84a13.562,13.562,0,0,1,4.218,4.163c2.266,3.389,2.542,6.411.774,8.437-2.008,2.284-5.1,2.045-7.755-.571a11.865,11.865,0,0,1-3.776-7.405,4.348,4.348,0,0,1,1.105-3.7A4.588,4.588,0,0,1,67.774-957.84Zm155.861.958c.055.589-.147,1.05-1.2,2.855-2.026,3.5-4.053,6.466-4.587,6.705-.608.295-.663.258-4.661-2.708-2.082-1.529-3.187-2.487-3.261-2.763a2.077,2.077,0,0,1,1.566-2.118,15.087,15.087,0,0,1,3.574,2.118c1.713,1.161,3.132,2.118,3.168,2.118.092,0,1.953-3,3.039-4.863,1.013-1.787,1.363-2.155,1.934-2.082C223.487-957.6,223.6-957.416,223.634-956.882Zm-13.429,8.031c.424.258.276,1.308-.221,1.824-.368.368-.737.479-1.732.571a4,4,0,0,0-3.113,1.529,4.321,4.321,0,0,0-1.308,3.205c.276,1.713,2.026,3.39,3.518,3.39,1.6,0,3.647-1.695,4.255-3.5a3.073,3.073,0,0,0,.074-2.008c-.276-1.271-.111-1.824.645-2.339,1.087-.7,1.879.184,1.842,2.082-.018,1.787-.976,3.574-3.021,5.618-1.971,1.99-3.353,2.726-5.084,2.726a3.814,3.814,0,0,1-2.118-.516,4.875,4.875,0,0,1-2.192-6.263c1.124-3.205,4.789-6.484,7.239-6.484A3.349,3.349,0,0,1,210.205-948.851ZM78.9-945.166a1.546,1.546,0,0,1,.534,1.142c0,.516-.332.9-2.782,3.279l-2.8,2.689,2.671,2.579a24.942,24.942,0,0,1,2.8,2.966.712.712,0,0,1-.884.884c-.682-.2-1.6-.995-4.568-3.942-2.763-2.745-3.3-3.445-3.039-4.126.055-.129,1.511-1.547,3.242-3.132C77.592-946.051,77.887-946.18,78.9-945.166Zm116.053,8.861a.809.809,0,0,1,.35.626c0,.479-.626,1.105-2.266,2.247a5.874,5.874,0,0,0-1.05.811c0,.055.958,1.437,2.118,3.039,1.437,2.008,2.118,3.095,2.118,3.426a2.031,2.031,0,0,1-1.989,1.6c-.663-.055-.755-.166-2.8-3.205l-2.118-3.15-1.566.995c-1.234.774-1.695.976-2.211.94-.589-.055-.645-.111-.645-.608,0-.626.129-.718,4.053-3.261,1.4-.921,3.039-2.026,3.611-2.468a6.279,6.279,0,0,1,1.971-1.161A1.47,1.47,0,0,1,194.953-936.306Zm-99.382,4.7a2.962,2.962,0,0,1,.792.884,78.5,78.5,0,0,1,.184,10.739c-.442.534-1.879.129-2.45-.7a3.02,3.02,0,0,1-.295-1.621v-1.2l-2.689-1.639-2.689-1.621-1.068.479a5.39,5.39,0,0,1-1.621.479c-1.087,0-2.174-1.584-1.455-2.174.111-.092,1.382-.682,2.8-1.289s3.445-1.529,4.513-2.063C93.8-932.419,94.447-932.456,95.571-931.609ZM183-928.9a43.32,43.32,0,0,1,2.358,3.887c2.321,4.126,2.413,4.495,1.308,5.232-.755.5-1.695.553-2.082.092a10.182,10.182,0,0,1-.976-1.695c-.387-.755-.718-1.418-.755-1.455-.055-.055-5.545,2.321-5.766,2.505a9.683,9.683,0,0,0,.608,1.6,5.56,5.56,0,0,1,.626,2.063c-.11,1.05-2.1,1.805-2.763,1.032a63.941,63.941,0,0,1-3.279-8.4c0-.995,1.953-1.658,2.634-.9a8.971,8.971,0,0,1,.792,1.566c.276.7.608,1.253.737,1.253a46.5,46.5,0,0,0,5.287-2.376c.092-.092-.129-.718-.516-1.492-.811-1.6-.792-2.137.074-2.708C181.984-929.177,182.555-929.232,183-928.9Zm-76.889,3.021c4.439,1.824,5.489,2.505,5.932,3.832a2.571,2.571,0,0,1-.755,2.6c-.534.534-.626.553-2.339.553a7.3,7.3,0,0,1-3.85-.847l-2.063-.829-.645,1.418c-.7,1.566-1.105,1.916-2.045,1.75-.921-.184-1.566-.774-1.566-1.437a53.792,53.792,0,0,1,3.832-7.755.977.977,0,0,1,.626-.313A21.9,21.9,0,0,1,106.108-925.88Zm63.35,3.905c1.308.682,1.474,1.6.424,2.155-.737.387-.884.368-2.321-.387a3.14,3.14,0,0,0-2.3-.571,5.482,5.482,0,0,0-3.279,1.529,3.943,3.943,0,0,0,1.087,5.471,6.266,6.266,0,0,0,4.053-.129,3.963,3.963,0,0,0,2.045-2.229c.258-.94.626-1.345,1.363-1.492,1.4-.258,1.861.682,1.105,2.229-.829,1.695-2.911,2.929-5.95,3.518-2.432.461-4.09.239-5.526-.737a4.859,4.859,0,0,1-.2-7.534,9.969,9.969,0,0,1,6.982-2.284A5.479,5.479,0,0,1,169.458-921.974Zm-50.032.479c1.861.461,3.905.921,4.532,1.05,1.363.258,1.861.663,1.529,1.271-.2.387-.313.405-1.363.295-.939-.092-5.232-1.013-6.208-1.308-.239-.074-.368.129-.589,1.013l-.276,1.105.774.2c.405.111,1.879.442,3.242.755,2.211.479,3.316.866,3.316,1.179a2.491,2.491,0,0,1-.184.461c-.276.516-1.087.461-4.421-.295-1.566-.35-2.947-.645-3.039-.645a4.922,4.922,0,0,0-.7,2.579,60.458,60.458,0,0,0,6.153,1.474,4.089,4.089,0,0,1,1.916.663c.387.387.35.571-.166.9-.405.276-.645.258-3.279-.276a55.231,55.231,0,0,1-7.166-1.787c-1.253-.5-1.253-.553.111-4.9,1.2-3.776,1.566-4.55,2.211-4.55C115.945-922.306,117.566-921.937,119.426-921.5Zm31.445,1.971c.405.129,1.05.81,2.118,2.155.847,1.087,2.247,2.763,3.113,3.721,2.063,2.321,2.155,2.505,1.584,3.076a2.191,2.191,0,0,1-1.234.553c-.774.11-.811.074-1.861-1.013l-1.068-1.124-3.076.295-3.076.313-.368.737c-.682,1.345-1.05,1.75-1.75,1.879-.847.166-1.9-.313-1.9-.866a6.7,6.7,0,0,1,.755-1.676c.424-.718,1.474-2.689,2.321-4.366,1.566-3.076,1.971-3.629,2.818-3.758A2.572,2.572,0,0,1,150.871-919.524Zm-16.8.239a22.886,22.886,0,0,1,1.934,2.229l1.547,1.971,1.971-2.045c1.787-1.879,2.008-2.045,2.634-2.045a3.046,3.046,0,0,1,1.032.184c.737.405.424.995-1.713,3.3a24.954,24.954,0,0,1-2.174,2.229,6.9,6.9,0,0,0-.258,1.842c-.147,2.192-.184,2.284-.774,2.56a2.133,2.133,0,0,1-1.916-.074c-.626-.313-.608-.295-.553-2.6.037-1.658.018-1.695-.553-2.358-.332-.369-1.2-1.437-1.953-2.376-1.418-1.768-1.676-2.505-1.032-2.874A2.01,2.01,0,0,1,134.071-919.285Z" transform="translate(0 0)"/>
    <path id="Path_73331" data-name="Path 73331" d="M505.453-1020.871a57,57,0,0,0-2.082,7.018,17.731,17.731,0,0,0,2.358-.221c1.253-.166,2.6-.295,2.966-.295.424,0,.682-.092.682-.24A53.6,53.6,0,0,0,505.6-1021,.234.234,0,0,0,505.453-1020.871Z" transform="translate(-375.969 -61.753)"/>
    <path id="Path_73332" data-name="Path 73332" d="M615.114-755.646a5.052,5.052,0,0,0-1.326.295,18.583,18.583,0,0,0,3.224.129c3.039,0,3.482.037,4.642.442a24.588,24.588,0,0,1,7.368,4.439c1.824,1.474,2.008,1.511.737.2a27.469,27.469,0,0,0-6.429-4.439A13.847,13.847,0,0,0,615.114-755.646Z" transform="translate(-466.049 -278.07)"/>
    <path id="Path_73333" data-name="Path 73333" d="M541.968-709.6a12.049,12.049,0,0,1,4.053,2.284l1.013.921-.921-.129a24.36,24.36,0,0,0-5.655.092,1.854,1.854,0,0,0-.774.626c-.387.589-.571,1.437-.313,1.437.11,0,.2-.147.2-.35,0-.479.829-1.234,1.492-1.382,1.861-.368,5.655.092,6.963.866a9.141,9.141,0,0,1,2.837,3.242c.976,2.21-.092,6.521-2.137,8.639-1.547,1.6-2.966,1.934-4.771,1.087a6.836,6.836,0,0,1-3.316-3.205c-.608-1.253-.995-1.345-.682-.147a7.172,7.172,0,0,0,3.7,4.255c2.395,1.253,5.011.258,6.687-2.505a11.9,11.9,0,0,0,1.695-5.342c.129-2.3-.258-3.224-2.3-5.379-3.058-3.205-5.563-4.918-7.387-5.047C541.894-709.65,541.71-709.632,541.968-709.6Z" transform="translate(-405.244 -315.758)"/>
    <path id="Path_73334" data-name="Path 73334" d="M454.039-697.3c-1.382.221-1.934.792-2.211,2.266-.147.774.037,2.339.276,2.339a3.571,3.571,0,0,0,.221-1.382c.055-1.216.129-1.437.571-1.879.442-.461.663-.516,1.934-.571,1.787-.092,2.174.184,2.911,1.934a6.837,6.837,0,0,1,.516,3.095c.018,2.818-.442,3.666-3.279,5.876-2.247,1.75-2.1,1.658-2.432,1.382a2.93,2.93,0,0,1-.553-.792l-.258-.571.074.553a4.722,4.722,0,0,0,.2.9c.147.313.092.35-.424.24-.35-.074-.589-.037-.589.055,0,.313,1.216.792,1.713.663a24.569,24.569,0,0,0,5.047-3.813,6.706,6.706,0,0,0,1.418-4.31c0-2.413-1.05-5.084-2.229-5.674A5.532,5.532,0,0,0,454.039-697.3Z" transform="translate(-333.25 -325.766)"/>
    <path id="Path_73335" data-name="Path 73335" d="M441.5-596.579a5.027,5.027,0,0,0-1.511,1.142c-3.076,3.758-4.605,5.876-4.421,6.079a4.277,4.277,0,0,0,.995-.995,37.622,37.622,0,0,1,5.084-5.434,7.168,7.168,0,0,1,1.382-.387c.645-.092.866-.037,1.161.258.461.46.461.7,0,2.505a16.93,16.93,0,0,1-2.376,5.176c-1.326,1.9-1.068,1.75-2.8,1.529a7.054,7.054,0,0,0-2.929.092c-2.1.442-2.082.7.055.534a4.684,4.684,0,0,1,1.787.037c0,.092-.221.332-.5.516-.313.184-.368.276-.147.2a4.3,4.3,0,0,1,2.118-.166,2.7,2.7,0,0,1-.589.755c-.571.589-.534.829.055.368a17.656,17.656,0,0,0,5.784-8.105c.626-1.953.626-3.482,0-4.089C444.044-597.168,442.791-597.187,441.5-596.579Z" transform="translate(-319.809 -407.627)"/>
    <path id="Path_73336" data-name="Path 73336" d="M521.1-568.459a9.612,9.612,0,0,0-2.984,2.026c-1.289,1.363-1.382,5.268-.239,9.984.239.958.5,2.118.571,2.579a4.279,4.279,0,0,0,.295,1.105c.313.571.147-1.418-.313-3.592a28.648,28.648,0,0,1-.571-5.195c-.092-2.8-.074-3.021.295-3.813a6.755,6.755,0,0,1,3.334-2.579,6.314,6.314,0,0,1,3.832-.055c.958.332,1.013.129.092-.332A6.9,6.9,0,0,0,521.1-568.459Z" transform="translate(-387.155 -430.699)"/>
    <path id="Path_73337" data-name="Path 73337" d="M620.728-508.246c-.921,1.179-1.326,2.782-1.695,6.539-.2,1.989-.479,4.4-.626,5.361-.442,2.745-.35,4.016.35,5.1.424.626.516.424.184-.368-.387-.939-.35-2.395.166-5.176a53.15,53.15,0,0,0,.663-5.416c.2-2.966.516-4.421,1.2-5.747C621.354-508.688,621.225-508.853,620.728-508.246Z" transform="translate(-469.599 -479.75)"/>
    <path id="Path_73338" data-name="Path 73338" d="M468.1-402.143a3.757,3.757,0,0,0-.276.995,4.09,4.09,0,0,1-.368,1.142c-.442.958-.461,1.253-.074.921a4.02,4.02,0,0,0,.995-2.339C468.653-402.751,468.506-403.12,468.1-402.143Z" transform="translate(-346.39 -566.16)"/>
    <path id="Path_73339" data-name="Path 73339" d="M434-401.572c0,.995,1.455,3.813,1.989,3.813.35,0,.276-.2-.424-1.179a8.582,8.582,0,0,1-.94-1.75C434.258-401.664,434-402.033,434-401.572Z" transform="translate(-319.382 -566.915)"/>
    <path id="Path_73340" data-name="Path 73340" d="M1032.373-505.709c-.424.258-1.124,2.634-1.676,5.784a4.209,4.209,0,0,0,1.9.663c.221,0,.387-.479.7-1.99.516-2.468.534-3.924.074-4.329C1032.981-505.93,1032.815-505.948,1032.373-505.709Z" transform="translate(-806.16 -481.992)"/>
    <path id="Path_73341" data-name="Path 73341" d="M1052.879-505.5a3.734,3.734,0,0,0-.589.976c-.2.516-1.289,5.25-1.289,5.6a7.655,7.655,0,0,0,2.671.718,29.66,29.66,0,0,0,1.013-5.747c0-.976-.074-1.289-.369-1.584A.889.889,0,0,0,1052.879-505.5Z" transform="translate(-822.724 -481.975)"/>
    <path id="Path_73342" data-name="Path 73342" d="M112.619-417.506c-2.1.939-2.6,3.389-1.271,6.263,1.124,2.487,3.039,3.5,4.955,2.616,2.137-.958,2.653-3.463,1.308-6.3C116.45-417.4,114.534-418.391,112.619-417.506Z" transform="translate(-55.566 -553.818)"/>
    <path id="Path_73343" data-name="Path 73343" d="M158.342-328.693a4.229,4.229,0,0,0-1.934,2.21c-.774,2.413,1.953,6.189,4.495,6.226a3.73,3.73,0,0,0,3.334-2.413c.571-1.9-.9-4.918-2.874-5.932A4.082,4.082,0,0,0,158.342-328.693Z" transform="translate(-92.816 -626.329)"/>
    <path id="Path_73344" data-name="Path 73344" d="M303.952-188.924a5.962,5.962,0,0,0-1.658,1.105,9.632,9.632,0,0,0,1.713,1.161l1.639.995.129-.976a10.471,10.471,0,0,0,.018-3.261A18.834,18.834,0,0,0,303.952-188.924Z" transform="translate(-211.936 -739.755)"/>
    <path id="Path_73345" data-name="Path 73345" d="M375.711-160.766a7.462,7.462,0,0,0-.516,1.271,26.789,26.789,0,0,0,3.5,1.253c1.658.295,2.468-1.2,1.2-2.174A15.648,15.648,0,0,0,376.43-162,3.909,3.909,0,0,0,375.711-160.766Z" transform="translate(-271.408 -762.516)"/>
    <path id="Path_73346" data-name="Path 73346" d="M616.866-119.5,616-117.525l1.658-.129c.9-.074,1.861-.2,2.118-.258l.479-.129-1.124-1.566c-.626-.866-1.2-1.621-1.271-1.713A6.172,6.172,0,0,0,616.866-119.5Z" transform="translate(-467.855 -795.699)"/>
  </g>
</svg>
