<svg xmlns="http://www.w3.org/2000/svg" width="196" height="196" viewBox="0 0 196 196">
  <g id="Group_77129" data-name="Group 77129" transform="translate(-1185 556)">
    <circle id="Ellipse_5906" data-name="Ellipse 5906" cx="98" cy="98" r="98" transform="translate(1185 -556)" fill="#4aa5b1"/>
    <g id="KDLAUNCH" transform="translate(1221.75 -519.25)">
      <g id="Group_71532" data-name="Group 71532">
        <path id="Path_64962" data-name="Path 64962" d="M14.165,7.6V22.208H0v7.955H.023V44.817H7.852V30.163H21.987V7.6Z" transform="translate(0 21.494)" fill="#fff"/>
        <path id="Path_64963" data-name="Path 64963" d="M41.4,14.967V29.583H27.246V37.53h.023V52.2h7.825V37.53H49.233V14.967Z" transform="translate(75.455 42.329)" fill="#fff"/>
        <path id="Path_64964" data-name="Path 64964" d="M18.045,18.584V33.2H3.891v7.943h.023V55.8h7.821V41.139H25.878V18.584Z" transform="translate(10.776 52.558)" fill="#fff"/>
        <path id="Path_64965" data-name="Path 64965" d="M37.51,3.75V18.37H23.348v7.943h.023V40.979H31.2V26.313H45.335V3.75Z" transform="translate(64.66 10.605)" fill="#fff"/>
        <path id="Path_64966" data-name="Path 64966" d="M19.52,0V14.612H33.686v7.951h-.03V37.229H25.83V22.563H11.695V0Z" transform="translate(32.388)" fill="#fff"/>
        <path id="Path_64967" data-name="Path 64967" d="M60.006,19.362H45.614V33.744H37.789v-.023H23.352V25.778H37.789V11.415H60.006Z" transform="translate(64.671 32.283)" fill="#fff"/>
        <path id="Path_64968" data-name="Path 64968" d="M36.657,23.132h-14.4V37.518H14.441v-.031H0V29.54H14.441V15.185H36.657Z" transform="translate(0 42.945)" fill="#fff"/>
        <path id="Path_64969" data-name="Path 64969" d="M23.274,22.275v14.62H37.432v7.947h-.023V59.5H29.584V44.842H15.441V22.275Z" transform="translate(42.762 62.996)" fill="#fff"/>
        <path id="Path_64970" data-name="Path 64970" d="M7.664,34.113H22.858V48.5h7.833v-.023H44.826V40.521H30.691V26.166H7.664Z" transform="translate(21.225 74.001)" fill="#fff"/>
        <path id="Path_64971" data-name="Path 64971" d="M19.555,30.23H33.947V44.608h7.825v-.023H56.536V36.638H41.772V22.275H19.555Z" transform="translate(54.155 62.996)" fill="#fff"/>
        <path id="Path_64972" data-name="Path 64972" d="M3.758,11.835H18.146V26.221h7.821v-.031H41.584V18.244H25.967V3.892H3.758Z" transform="translate(10.407 11.007)" fill="#fff"/>
        <path id="Path_64973" data-name="Path 64973" d="M29.621,22.329V7.947H15.441V0H37.447V14.355h15.8v7.951" transform="translate(42.762)" fill="#fff"/>
        <path id="Path_64974" data-name="Path 64974" d="M15.433,11.412H7.578V19.39h7.855Z" transform="translate(20.986 32.275)" fill="#fff"/>
        <path id="Path_64975" data-name="Path 64975" d="M31.2,18.787H23.352v7.978H31.2Z" transform="translate(64.671 53.132)" fill="#fff"/>
        <path id="Path_64976" data-name="Path 64976" d="M27.054,7.642H19.2v7.974h7.855Z" transform="translate(53.169 21.613)" fill="#fff"/>
        <path id="Path_64977" data-name="Path 64977" d="M19.55,22.275H11.695v7.978H19.55Z" transform="translate(32.388 62.996)" fill="#fff"/>
      </g>
    </g>
  </g>
</svg>
