<svg xmlns="http://www.w3.org/2000/svg" width="196" height="196" viewBox="0 0 196 196">
  <g id="Group_77131" data-name="Group 77131" transform="translate(-883 -543)">
    <circle id="Ellipse_5906" data-name="Ellipse 5906" cx="98" cy="98" r="98" transform="translate(883 543)" fill="#6ebbf2"/>
    <g id="KDSWAP" transform="translate(919.75 579.75)">
      <path id="Path_64950" data-name="Path 64950" d="M163.528,14.41v7.207h21.617V14.41h-14.41V0H149.118V7.207h14.41Z" transform="translate(-91.47)" fill="#fff"/>
      <path id="Path_64951" data-name="Path 64951" d="M166.913,11.861v-4.8h-7.207v7.207h7.207Z" transform="translate(-58.823 21.765)" fill="#fff"/>
      <path id="Path_64952" data-name="Path 64952" d="M177.794,10.588h-7.207V25h-14.41v7.2h21.617V17.8H192.2V10.588Z" transform="translate(-69.704 32.646)" fill="#fff"/>
      <path id="Path_64953" data-name="Path 64953" d="M174.116,28.528h-14.41V50.145h7.207V35.735h14.41V14.118h-7.207Z" transform="translate(-58.823 43.53)" fill="#fff"/>
      <path id="Path_64954" data-name="Path 64954" d="M152.8,0h-7.207V7.207H152.8Z" transform="translate(-102.354)" fill="#fff"/>
      <path id="Path_64955" data-name="Path 64955" d="M149.266,15.832l2.107,2.111,7.207,7.2h41.127V39.56h7.2V17.943H161.565l-7.2-7.207h23.724V3.529H142.059V39.56h7.207Z" transform="translate(-113.235 10.881)" fill="#fff"/>
      <path id="Path_64956" data-name="Path 64956" d="M163.676,31.909v-7.2H142.059v7.2h14.41V46.323h21.617V39.116h-14.41Z" transform="translate(-113.235 76.177)" fill="#fff"/>
      <path id="Path_64957" data-name="Path 64957" d="M138.529,23.581v4.8h7.207V21.176h-7.207Z" transform="translate(-124.119 65.293)" fill="#fff"/>
      <path id="Path_64958" data-name="Path 64958" d="M171.031,14.118H149.41v14.41H135v7.207h21.617V21.321h14.414Z" transform="translate(-135 43.53)" fill="#fff"/>
      <path id="Path_64959" data-name="Path 64959" d="M142.207,28.676h14.41V7.059H149.41v14.41H135V43.086h7.207Z" transform="translate(-135 21.765)" fill="#fff"/>
      <path id="Path_64960" data-name="Path 64960" d="M159.854,28.235h-7.207v7.207h7.207Z" transform="translate(-80.588 87.058)" fill="#fff"/>
      <path id="Path_64961" data-name="Path 64961" d="M199.707,41.375l-9.318-9.314H149.266V17.647h-7.207V39.264H187.4l7.2,7.207H170.883v7.207H206.91V17.647h-7.2Z" transform="translate(-113.235 54.412)" fill="#fff"/>
    </g>
  </g>
</svg>
