<svg width="16" height="16" viewBox="0 0 16 16" fill="none" xmlns="http://www.w3.org/2000/svg">
    <g opacity="0.5">
        <path fill-rule="evenodd" clip-rule="evenodd"
              d="M4 4V6C2.93165 6 2 6.77637 2 7.83333V14.1667C2 15.2236 2.93165 16 4 16H12C13.0684 16 14 15.2236 14 14.1667V7.83333C14 6.77637 13.0684 6 12 6V4C12 1.79086 10.2091 0 8 0C5.79086 0 4 1.79086 4 4ZM10 4V6H6V4C6 2.89543 6.89543 2 8 2C9.10457 2 10 2.89543 10 4ZM4 14V8H12V14H4ZM9 11C9 11.5523 8.55228 12 8 12C7.44772 12 7 11.5523 7 11C7 10.4477 7.44772 10 8 10C8.55228 10 9 10.4477 9 11Z"
              fill="#787B8E"/>
    </g>
</svg>
