<svg width="48" height="48" viewBox="0 0 48 48" fill="none" xmlns="http://www.w3.org/2000/svg">
    <g opacity="0.3">
        <path fill-rule="evenodd" clip-rule="evenodd"
              d="M14 22V12C14 6.47715 18.4772 2 24 2C29.5228 2 34 6.47715 34 12V16H30V12C30 8.68629 27.3137 6 24 6C20.6863 6 18 8.68629 18 12V22H36C38.2091 22 40 23.7909 40 26V42C40 44.2091 38.2091 46 36 46H12C9.79086 46 8 44.2091 8 42V26C8 23.7909 9.79086 22 12 22H14ZM12 42V26H36V42H12ZM26 34C26 35.1046 25.1046 36 24 36C22.8954 36 22 35.1046 22 34C22 32.8954 22.8954 32 24 32C25.1046 32 26 32.8954 26 34Z"
              fill="#000"/>
    </g>
</svg>
