<svg width="24" height="24" viewBox="0 0 24 24" fill="none" xmlns="http://www.w3.org/2000/svg">
    <g clip-path="url(#clip0_5_2216)">
        <path d="M16.8177 8.50249L10.7318 13.477L10.4454 13.7116C10.3825 13.7615 10.3414 13.8338 10.3309 13.9134L10.2668 14.4425L10.0909 15.9289C10.0925 15.9469 10.0869 15.9649 10.0752 15.9789C10.0636 15.9928 10.0469 16.0015 10.0288 16.0032C10.0107 16.0048 9.99275 15.9992 9.97882 15.9875C9.96488 15.9759 9.95613 15.9592 9.95451 15.9411L9.45951 14.4548L8.94814 12.9343C8.92633 12.8662 8.92912 12.7925 8.95603 12.7263C8.98295 12.66 9.03227 12.6052 9.09542 12.5716L15.4281 8.94158L16.62 8.25976C16.7931 8.15886 16.9704 8.37704 16.8177 8.50249V8.50249Z"
              fill="#ACB4BE"/>
        <path d="M12 0C9.62663 0 7.30656 0.703788 5.33317 2.02236C3.35977 3.34094 1.8217 5.21509 0.913451 7.4078C0.00519946 9.60051 -0.232441 12.0133 0.230582 14.3411C0.693605 16.6689 1.83649 18.8071 3.51473 20.4853C5.19296 22.1635 7.33115 23.3064 9.65893 23.7694C11.9867 24.2324 14.3995 23.9948 16.5922 23.0866C18.7849 22.1783 20.6591 20.6402 21.9777 18.6668C23.2962 16.6935 24 14.3734 24 12C24 8.8174 22.7357 5.76516 20.4853 3.51472C18.2349 1.26428 15.1826 0 12 0V0ZM19.485 6.94636L17.1423 17.2977C17.0318 17.7832 16.4155 18.0027 15.9832 17.7068L12.4459 15.3068L10.6446 17.01C10.5711 17.0789 10.4819 17.1289 10.3848 17.1555C10.2877 17.1822 10.1855 17.1848 10.0872 17.163C9.98881 17.1412 9.89726 17.0958 9.82045 17.0306C9.74364 16.9655 9.68388 16.8826 9.64637 16.7891L8.99592 14.88L8.34546 12.9709L4.85864 12.0164C4.76115 11.9951 4.67342 11.9422 4.6091 11.8659C4.54477 11.7896 4.50745 11.6942 4.50294 11.5945C4.49843 11.4948 4.52699 11.3964 4.58416 11.3147C4.64133 11.2329 4.72393 11.1723 4.8191 11.1423L18.2891 6.28909L18.5373 6.20045C19.0596 6.01773 19.5996 6.44045 19.485 6.94636V6.94636Z"
              fill="#ACB4BE"/>
    </g>
    <defs>
        <clipPath id="clip0_5_2216">
            <rect width="24" height="24" fill="white"/>
        </clipPath>
    </defs>
</svg>
